Coordinates
version=1
nRows=12
nColumns=24
inDegrees=yes

Units are S.I. units (second, meters, Newtons, ...)
Angles are in degrees.

endheader
time	pelvis_tilt	pelvis_list	pelvis_rotation	pelvis_tx	pelvis_ty	pelvis_tz	hip_flexion_r	hip_adduction_r	hip_rotation_r	knee_angle_r	ankle_angle_r	subtalar_angle_r	mtp_angle_r	hip_flexion_l	hip_adduction_l	hip_rotation_l	knee_angle_l	ankle_angle_l	subtalar_angle_l	mtp_angle_l	lumbar_extension	lumbar_bending	lumbar_rotation
      4.54000000	     -1.17794500	     -2.26267117	     10.89084153	      0.09897078	      0.96321991	      0.02174713	     12.14349765	      4.58589813	      1.53123148	    -15.53718960	     11.90475126	      0.00000000	      0.00000000	     18.46124567	     -7.10840807	     -3.79710233	    -60.30576550	      6.76662374	      0.00000000	      0.00000000	     -5.11109500	      6.88638115	      2.73720313
      4.55000000	     -1.00389432	     -1.88357982	     10.60424323	      0.09732420	      0.96401032	      0.02269101	     11.59055241	      4.45002905	      2.06757314	    -15.75896255	     12.32972574	      0.00000000	      0.00000000	     18.97813039	     -6.82678465	     -4.46498101	    -59.41019953	      7.72665386	      0.00000000	      0.00000000	     -5.48327224	      6.50560968	      3.08572392
      4.56000000	     -0.94514939	     -1.58867863	     10.46420565	      0.09562032	      0.96456084	      0.02330114	     11.11028605	      4.32238889	      2.34415447	    -15.83097081	     12.67889390	      0.00000000	      0.00000000	     19.66902336	     -6.49255088	     -4.85738601	    -58.38857228	      8.37833452	      0.00000000	      0.00000000	     -5.66791560	      6.22475965	      3.23434154
      4.57000000	     -0.88207153	     -1.52960580	     10.44895900	      0.09383045	      0.96500743	      0.02392277	     10.71586709	      4.43098969	      2.43745781	    -15.98606977	     12.82634808	      0.00000000	      0.00000000	     20.41932918	     -6.34973103	     -4.97563529	    -57.20035821	      8.60078173	      0.00000000	      0.00000000	     -5.80706405	      6.18293777	      3.28380857
      4.58000000	     -0.86676384	     -0.90951462	     10.15635836	      0.09204219	      0.96548395	      0.02464464	     10.32622298	      3.97706590	      2.85493062	    -16.25679650	     13.45662539	      0.00000000	      0.00000000	     20.83877513	     -5.62061976	     -5.44483532	    -55.58838133	      9.44983382	      0.00000000	      0.00000000	     -6.03193216	      5.49524358	      3.53976755
      4.59000000	     -0.82685183	     -0.91265946	     10.10912115	      0.09012954	      0.96572053	      0.02518346	      9.99952876	      4.14048349	      2.92046327	    -16.43969005	     13.61617354	      0.00000000	      0.00000000	     21.52623966	     -5.47492325	     -5.42401929	    -54.07079098	      9.53990098	      0.00000000	      0.00000000	     -6.13756160	      5.53076289	      3.59224503
      4.60000000	     -0.85962384	     -0.21772127	      9.85765748	      0.08827084	      0.96606564	      0.02570015	      9.68697863	      3.56795178	      3.18535021	    -16.77897766	     14.30901071	      0.00000000	      0.00000000	     21.83283466	     -4.58094480	     -5.71706768	    -51.99278378	      9.91818393	      0.00000000	      0.00000000	     -6.30995995	      4.76019085	      3.75942476
      4.61000000	     -0.85835213	     -0.29178459	      9.79717956	      0.08631853	      0.96606311	      0.02618196	      9.40663997	      3.79147338	      3.23322964	    -16.93666004	     14.49636351	      0.00000000	      0.00000000	     22.46112316	     -4.48399546	     -5.60089274	    -50.16680389	      9.93158207	      0.00000000	      0.00000000	     -6.36279238	      4.86261124	      3.81073421
      4.62000000	     -0.89138771	      0.38048257	      9.58411157	      0.08442010	      0.96628483	      0.02656118	      9.08779431	      3.21568553	      3.38751061	    -17.23305965	     15.19918092	      0.00000000	      0.00000000	     22.64016894	     -3.59727897	     -5.77822172	    -47.71992407	      9.84322485	      0.00000000	      0.00000000	     -6.52545424	      4.12013549	      3.91156885
      4.63000000	     -0.99386234	      0.49448749	      9.48880001	      0.08258439	      0.96611970	      0.02690484	      8.77591877	      3.20728410	      3.48640630	    -17.19088812	     15.57645597	      0.00000000	      0.00000000	     23.11353843	     -3.27952159	     -5.68867788	    -45.45506963	      9.71737848	      0.00000000	      0.00000000	     -6.48129702	      3.99051903	      3.94899898
      4.64000000	     -0.98794179	      0.81556908	      9.34042256	      0.08060662	      0.96611892	      0.02714627	      8.45049527	      2.98948740	      3.57469752	    -17.41914121	     16.02858339	      0.00000000	      0.00000000	     23.29650674	     -2.75755855	     -5.64090917	    -42.90917541	      9.38058248	      0.00000000	      0.00000000	     -6.63186193	      3.66289189	      4.01695976
      4.65000000	     -1.08304958	      0.95270340	      9.20227150	      0.07874140	      0.96586314	      0.02741225	      8.12866201	      2.94680504	      3.70713712	    -17.37443034	     16.44105916	      0.00000000	      0.00000000	     23.59051961	     -2.42539484	     -5.51749761	    -40.34286616	      9.02904827	      0.00000000	      0.00000000	     -6.61532477	      3.50897781	      4.05956301
